<svg aria-hidden="true" style="position: absolute; width: 0; height: 0; overflow: hidden;" version="1.1" xmlns="http://www.w3.org/2000/svg" xmlns:xlink="http://www.w3.org/1999/xlink">
<defs>

<symbol id="icon-search" viewBox="0 0 32 32">
<path d="M19.427 20.427c-1.39 0.99-3.090 1.573-4.927 1.573-4.694 0-8.5-3.806-8.5-8.5s3.806-8.5 8.5-8.5c4.694 0 8.5 3.806 8.5 8.5 0 1.837-0.583 3.537-1.573 4.927l5.585 5.585c0.55 0.55 0.546 1.431-0 1.976l-0.023 0.023c-0.544 0.544-1.431 0.546-1.976 0l-5.585-5.585zM14.5 20c3.59 0 6.5-2.91 6.5-6.5s-2.91-6.5-6.5-6.5c-3.59 0-6.5 2.91-6.5 6.5s2.91 6.5 6.5 6.5v0z"></path>
</symbol>

<!-- burgerMenu -->
<symbol id="icon-burger-menu" viewBox="0 0 32 32">
<path d="M30 2C30 2.82843 29.3284 3.5 28.5 3.5H1.5C0.671573 3.5 0 2.82843 0 2C0 1.17157 0.671573 0.5 1.5 0.5H28.5C29.3284 0.5 30 1.17157 30 2Z" fill="#BC0D2A"/>
<path d="M30 15C30 15.8284 29.3284 16.5 28.5 16.5H1.5C0.671573 16.5 0 15.8284 0 15C0 14.1716 0.671573 13.5 1.5 13.5H28.5C29.3284 13.5 30 14.1716 30 15Z" fill="#BC0D2A"/>
<path d="M30 28C30 28.8284 29.3284 29.5 28.5 29.5H1.5C0.671573 29.5 0 28.8284 0 28C0 27.1716 0.671573 26.5 1.5 26.5H28.5C29.3284 26.5 30 27.1716 30 28Z" fill="#BC0D2A"/>
</symbol>

<symbol id="icon-likeSVG" viewBox="0 0 32 32">
<path d="M23.6 2c-3.363 0-6.258 2.736-7.599 5.594-1.342-2.858-4.237-5.594-7.601-5.594-4.637 0-8.4 3.764-8.4 8.401 0 9.433 9.516 11.906 16.001 21.232 6.13-9.268 15.999-12.1 15.999-21.232 0-4.637-3.763-8.401-8.4-8.401z"></path>
</symbol>

</defs>
</svg>