<svg xmlns="http://www.w3.org/2000/svg" version="1.1" viewBox="0 0 2048 1014" width="1542" height="764">
<path transform="translate(356)" d="m0 0h36l30 5 19 6 19 8 16 9 16 12 14 12 7 7 9 11 8 10v2l23 1 19 3 21 6 21 10 17 12 18 18 10 14 9 16 8 20 6 23 3 22v37l-1 7 874-63 12-1h34l18 4 13 5 13 7 11 9 11 11 7 8 12 13 88 96 12 13 9 10 12 13 10 11 9-6 15-11 23-15 28-17 34-18 35-18 23-11 4-1 3-10 12-35 4-13h5l-1 8-12 36-4 10 32-15 15-6 2 5-12 6-29 13-9 4h-2l-3 9-12 27-12 24-14 24-11 18-15 22-14 19-21 28 1 4 8 9 8 14 4 11 2 13-1 16-4 14-7 14-12 17-16 24-10 14-10 15-32 47-11 16-19 28-13 19-17 25-13 19-17 25-26 38-11 13-13 10-17 9-15 5-17 3-80 6-1387 100-23 2h-23l-20-4-16-6-14-8-12-11-7-7-8-13-5-14-2-15-37-515-1-11v-23l4-15 8-15 7-9 11-11 15-10 16-7 12-4 5-19 7-16 8-13 8-10 11-12 14-11 16-10 18-8 6-1v-34l3-21 5-21 7-19 8-17 10-16 11-14 11-12 7-7 11-9 14-10 15-9 16-8 20-8 26-7zm1629 318-35 17-33 17-23 13-14 8-22 14-16 11-14 10-4 3 2 4 7 7 7 8 14 15 9 10 12 13 9 10 3 3h2l28-38 13-18 13-20 12-20 12-22 11-22 9-21v-2z" fill="#B70D28"/>
<path transform="translate(356)" d="m0 0h36l30 5 19 6 19 8 16 9 16 12 14 12 7 7 9 11 8 10v2l23 1 19 3 21 6 21 10 17 12 18 18 10 14 9 16 8 20 6 23 3 22v37l-1 7 874-63 12-1h34l18 4 13 5 13 7 11 9 11 11 7 8 12 13 88 96 12 13 9 10 12 13 10 11 9-6 15-11 23-15 28-17 34-18 35-18 23-11 4-1 3-10 12-35 4-13h5l-1 8-12 36-4 10 32-15 15-6 2 5-12 6-29 13-9 4h-2l-3 9-12 27-12 24-14 24-11 18-15 22-14 19-21 28 1 4 8 9 8 14 4 11 2 13-1 16-4 14-7 14-12 17-16 24-10 14-10 15-32 47-11 16-19 28-13 19-17 25-13 19-17 25-26 38-11 13-13 10-17 9-15 5-17 3-80 6-1387 100-23 2h-23l-20-4-16-6-14-8-12-11-7-7-8-13-5-14-2-15-37-515-1-11v-23l4-15 8-15 7-9 11-11 15-10 16-7 12-4 5-19 7-16 8-13 8-10 11-12 14-11 16-10 18-8 6-1v-34l3-21 5-21 7-19 8-17 10-16 11-14 11-12 7-7 11-9 14-10 15-9 16-8 20-8 26-7zm1216 217-873 63-16 2-3 8-3 15-10 28-8 17-11 17-8 10-1 3-3 1-7 8 1 4 9 10 14 19 12 19 14 27 7 17 6 18 5 19 5 26 2 17v49l-3 25-5 24v6l12 16 13 21 12 22 6 13 6 14 7 20 4 11 10 35v22l-3 11-5 9v2h-2l-4 4v2l-5 2-13 4-24 3-15 1h-42l-17-4-5-3h-2l-1-3h-2l-2-15-1-1-14-2-6-3-6-8-2-5v-15l-8 5v2l-4 1v2l-5 2-12 8-23 13-22 10-25 9-21 6-32 5-11 1h-48l-25-3-25-5-16-4-10-4-17-6-28-14-14-8-9-6h-2l-6 10-6 4-7 2-10 1-2 13-4 5-11 5-14 3h-29l-34-2-22-3-12-6-8-9-6-16-1-8v-12l3-12 7-15 7-21 5-12 8-20 7-17 4-9 11-21 6-10v-8l-4-13-6-29-3-27v-35l2-22 4-23 6-25 5-15 5-11 5-13 7-13v-3l-11-6-13-10-13-12-5-7h-2l-2-4-5-7-1-3h-2l-1-5-3-5-8-19-5-21-2-22-5 1-17 7-14 10-12 12v2h-2v3h-2l-7 15-2 7v31l2 23 5 74 19 265 11 154 2 16 3 10 9 14 8 9 5 4h2v2h3v2l16 8 17 5 5 1h35l265-19 8-1 61-4 652-47 36-3 47-3 402-29 22-3 14-4 14-7 11-8 9-8 11-15 4-6v-2h2l4-7 13-19 11-16v-2h2l4-7 9-13v-2h2l4-7 9-13v-2h2l4-7 9-13v-2h2v-3h2l4-7 16-23 6-9v-2h2l4-7 13-19 11-16v-2h2l4-7 13-19 11-16v-2h2l4-7 9-13v-2h2l5-9 4-6 4-12 1-5v-17l-4-15-4-8h-2l-2-5-7-8-5-5-10-12-14-14-7-9-5-5-6-7-5-5-7-8-11-11-5 1-17 14-14 12-12 11-13 12-8 8-7 8-11 13-3 5v3l10 7 7 10 5 13 1 6v10l-4 15-8 13-3 2v2l-5 2-12 6-7 2h-18l-12-4-11-7-7-8-6-12-3-12v-11l5-15 7-10 10-9 10-4 7-2h18l8 2h4v-2h2v-3h2l4-6 12-14 27-27 8-7 14-12 14-11 6-4-1-4-8-8-7-8-10-11-7-8-9-9-6-8-6-5-7-8-9-10-7-8-5-6-16-16-7-8-9-10-7-8-5-6-5-5-5-6-5-4-6-8-13-13-13-9-16-8-15-4-6-1zm413 101-35 17-33 17-23 13-14 8-22 14-16 11-14 10-4 3 2 4 7 7 7 8 14 15 9 10 12 13 9 10 3 3h2l28-38 13-18 13-20 12-20 12-22 11-22 9-21v-2z" fill="#232227"/>
<path transform="translate(362,12)" d="m0 0h23l19 2 19 4 18 6 21 10 15 10 10 8 10 9 12 12 10 13 6 8 25 1 19 3 15 4 16 7 16 9 14 12 7 7 11 15 9 16 7 18 6 25 2 16v38l-2 17-5 22-7 21-10 21-10 15h-1v-22l-3-10-4-6-4-3-3-1h-16l-11-23-12-28-19-45-12-26h-2l-12 13-7 7-17 13-21 12-21 8-15 4-20 3h-30l-22-3-23-6-21-8-1-19-3-16-6-16-1-1h-6l-2 2v6l3 8v8l-11 23-14 26-12 19-11 14-7 6-8 4-4 1h-18l-30-3h-17l-15 3-12 5-9 7-10 10-9 14-5 11-4 15v17l4 15 8 16 8 10 8 9 13 10 4 3-9-1-16-7-14-9-11-9-12-12-11-15-8-15-6-17-3-14v-28l4-17 7-17 10-15 12-14 12-10 14-9 19-9 13-4h3l-1-7v-31l3-23 5-21 8-21 8-16 11-16 8-10 11-12 8-7 17-13 13-8 19-10 21-8 18-5 23-4z" fill="#827A7D"/>
<path transform="translate(246,586)" d="m0 0h1l3 24 5 20 8 20 9 17 8 12 9 12 11 12 7 7 15 10 13 5 5 1h19l15-5 11-7 10-9 8-9 8-13 7-15 2-4 2 3 10 21 9 12 9 10 13 9 11 5 8 2h19l13-4 11-6 14-11 7-7 11-14 10-15 9-16 8-19 5-18 3-19 1-3 5 2 16 10 18 14 14 12 15 14 12 13 14 17 14 20 15 25 13 26 11 28 5 16-18-6-16-3-10-1h-33l-14 2-31 12-5 3h-2l-9-40-6-28-2-4-6-1-3 2v9l11 50 3 14v5l-13 9-16 12-21 13-21 11-25 10-26 8-22 5-20 3-26 2h-23l-21-2-27-5-24-7-19-7-20-9-19-10-21-14-3-4-4-8-1-5 18-64 2-7v-8l-2-2h-6l-3 5-17 61-2 7-4-2-17-8-16-6-9-3-8-1h-41l-19 3-16 5 3-10 12-31 8-18 10-21 12-21 10-15 9-12 11-12 11-11 8-7 13-11 16-12 18-12z" fill="#FDFDFD"/>
<path transform="translate(548,217)" d="m0 0h2l4 8 4 10 6 16 9 21 10 23 9 21 6 11 4 5 9-1 1-1h7l5 5 1 2v21l-6 15-8 14-6 5-3 2h-8l-7-2-3 12-8 23-8 16-10 18-13 18-12 14-9 10-8 7-12 10-15 10-15 8-19 7-16 4-10 2h-24l-27-6-19-8-16-9-12-9-10-9-9-8-7-8-13-16-12-19-8-17-10-19-1-3-13-1-10-2-11-5-7-4-7-8-4-6-4-13v-25l4-13 7-9 5-4h10l10 6 10 9 4 4 5-1 14-7 12-7 11-9 11-11 10-14 6-10 1-3h2l2-6 6-12 5-16 5 1 17 6 11 3 24 4 9 1h33l19-2 6-2 7-1 9-3 13-5 16-8 16-10 11-9 10-9z" fill="#E8AFA6"/>
<path transform="translate(833,366)" d="m0 0h93l15 3 14 5 14 9 8 7 5 6v2h2l8 14 6 13 5 16 1 6v16l-5 19-6 14-10 14-11 12-9 8-11 6-14 5-19 2h-83v-118l-3-50z" fill="#FDFCFC"/>
<path transform="translate(259,449)" d="m0 0h3l11 21v2h2l4 8 10 13 11 13 7 8 3 2v11l-3 19-14 5-10 4-14 6-9 4-10 6-8 4-14 8-15 10-19 14-13 11-11 10-8 7-11 11-13 17-5 7h-2l-6-25-4-28v-54l4-27 6-25 8-24 5-11 7-16 4-5 4 1 9 3 24 4h15l20-3 21-6 9-4z" fill="#D1838A"/>
<path transform="translate(620,398)" d="m0 0 5 4 9 11 14 19 14 24 9 17 4 11 3 8 3 7 5 17 4 16 4 26 1 9v48l-4 29-3 12-4-2-11-12-22-22-11-9-12-9-18-13-19-11-23-12-11-5-23-11-4-5-4-16-2-10 8-7 11-11 9-11 15-21 1-3h2l1-4 9-16 5-10 4-11 3-6h2v-2l5-3h2v-2l7-4z" fill="#D1848A"/>
<path transform="translate(1348,364)" d="m0 0 2 1 2 12 2 27 2 37v74l-2 25 49-1h67l2-19 6-27 3-7 2 3v2h3l1 5v8l-1 1-1 13h5l5-1 19 10 10 6 1 1v16h31v-15l12-9 7-7 6-10 4-10 1-5 1-16 2 2 3 10 2 7-2 13-3 10-7 12h-2l-2 5-7 7h-2l-4 12-3 8-3 3-6 2-18 2h-11l-7-4-3-5-3-12h-2l-5-6-5-3v-2l-4-1-10-7-3-1-3 10-3 11h-2l-1 3-11 4-25 1-59 1h-25l-8-4h-11l-11 2-19 1-25 2-8-1-2-1v-2h-2l-3-4-4-10-6-11-3-3-12-2-21-1-8 4-6 11v3h-2l-1 6-6 8-12 2h-23l-28-2-6-2-8 5-15 2h-36l-26-1h-26l-7-1-5-4-2-10 2-19-1-15-5 1-4 5-4 2-2 5-3 1-2 4-3 1-1 3h-2v2l-8 7-10 7-10 5-10 3-22 3-17 1h-55l-11-1-6-5-2-9-1-16v-32l1-10v-19l-1-6-1-37-1-17-1-12v-17l3-9 5-3 2-4 2 2 2 21 2 36v93l-1 25 83-1 19-2 17-6 13-9 11-11 11-15 7-14 4-14 3-14 3 3 2-12 1-26-4-43 2-7 3-1 3 21 1 21v81l-2 31-2 17h85l21 2 3-12 8-24 2-1 5 5 1 7-4 13 4 1 1-3 1 3-4 7h15l45 2 2-9 8-24 2-2h57l3 5 10 27v2l49-3h19l1-2v-26l-2-50-2-27-3-49 2-10 7-8z" fill="#A30D27"/>
<path transform="translate(1585,599)" d="m0 0 6 5v9l-3 10-4 10-9 23-6 17-5 13-6 15-3 10-10 24-5 4-13 3h-13l-24-1-6-2h-7l-6 1-12 1-19 1-6-3-6-15-2-9-2-2h-5l-1 2h-2l-2 5-1 2h-2l-1 4h-2l-1 5-8 8-3 2h-6l-3-2v-2l-4-2-5-9-4-6v-2l-4-2h-5l-5 11-4 9-7 4-9 2h-31l-6-1h-23l-13 2h-9l-3-1v-2h-2l-4-8-4-16v-3h-7l-4 4-3 5-7 11h-2l-2 4-3 3-2 1h-8v-2l-3-1-6-9-3-5v-2l-3-1-3-4v-2l-5 1-4 6-6 15-5 4-7 2-28 1-9-2-5-5-2-6-8 1-1 2-4 1-16 6-21 3h-16l-16-4-18-8v-2h-5l-1 5-2 3-8 3-11 2-16 1h-14l-5-4-3-7-4-19h-6l-4 4-1 3h-2v3h-2l-2 5-8 10-3 3-9 1-2-1v-2l-3-1-6-10v-3h-2l-3-6-7-3-1 2h-2l-3 9-4 10h-2l-1 3-10 3-28 2-7-1-4-3-2-5v-8l7-15 3-7h2l-1 8-2 8h40l2-11 10-38h3l14 23 15 24 2 1 17-28 16-26 2-1 5 24 2 15 3 13v3l28-2h15l-4-13-4-16v-9l-1-7v-10l4-18 2-4 1 25 4 17 6 12 9 10 9 7 9 4 17 3h16l16-3 12-5 10-7 7-8 6-12 5-20 2 1v7l5 1 1-2-1 9-10 39h40l4-18 8-30 2-2 15 24 16 26 7-10 16-27 10-16 3-3 7 35 2 15 1 5 18-1h25l3 3 3-1h42l1-9 11-42h2l10 17 12 19 8 13h2l16-27 10-16 7-11h2l8 42 1 12 35-2h8l3 7 5-2 1-2h46l1-6 16-41 21-55 6-16z" fill="#A30D27"/>
<path transform="translate(1212,363)" d="m0 0h41l29 58 8 15 28 56 6 11 16 32v3l-51 3h-13l-7-18-5-14-1-1h-57l-4 10-8 24h-16l-29-1-15-1 2-5 17-36 16-35 21-49 15-36 6-15z" fill="#FDFBFB"/>
<path transform="translate(1010,364)" d="m0 0h111l7 23 4 16v3h-50l-12 1-1 26 40-1 12-1h10l-1 9-5 33h-10l-10-1h-34v13l-1 13 60 3-3 12-9 29-1 2-21-1-85-1 1-17 2-31v-81l-1-21-3-21z" fill="#FCFBFB"/>
<path transform="translate(361,294)" d="m0 0h21l10 4 10 6 7 7 7 12 2 6v5l15-5 4-1h27l15 4 1-7 6-11 7-8 9-7 9-4 4-1h20l11 4 10 7 7 7 5 8 4 11v19l-4 12-8 11-8 7-7 4-13 4h-15l-10-3-10-6-8-7-7-10-4-12v-4l-16-4-2-1h-20l-20 7-2 2-2 8-4 8-9 10-9 7-10 4-5 1h-15l-13-4-10-7-7-7-7-12-2-7v-21l4-11 8-11 10-8 8-4z" fill="#25252A"/>
<path transform="translate(963,595)" d="m0 0 23 1 1 5 2 26 5 30 7 34 7 27v2l-25 2h-18l-4-16-4-25-3-13-17 28-16 26h-3l-9-14-13-21-8-13-2 4-12 45h-40l1-8 13-52 3-13 4-15 5-26 3-12 1-1h24l11 19 6 11 14 26 4 7 2-1 4-7 13-22 16-27 4-6z" fill="#FCFBFB"/>
<path transform="translate(1166,594)" d="m0 0h16l3 3 14 26 10 18 9 16 3-2 6-11 5-8 6-9 6-11 13-22h23l2 4 1 18 4 30 5 25 8 34 2 8v5l-24 2h-18l-2-5-4-26-5-23-10 17-14 23-10 16-4-4-12-20-12-19-4-7-3 8-10 39-1 2h-40l1-8 16-64 3-11 5-25 4-18z" fill="#FCFBFB"/>
<path transform="translate(1347,593)" d="m0 0h17l6 9 10 19 10 18 9 16v2h2l2-5 5-7 6-11 24-40 1-1h23l1 1 3 34 6 36 9 38 2 8 1 7-25 2h-18l-9-49v-5l-3 3-28 46-4 6-3-1-16-26-13-21v-2h-2l-1 7-11 43h-40l1-10 11-43 3-12 5-22 8-38 1-1z" fill="#FDFBFB"/>
<path transform="translate(1350,363)" d="m0 0h65l-2 27-2 34v45l1 21 43-5 23-4h4l-4 16-6 29-2 13-67 1h-49l1-25v-74l-3-51-1-13-1-4z" fill="#FDFCFC"/>
<path transform="translate(326,207)" d="m0 0h1l3 19v13l-3 17-5 15-10 19-9 12-9 10-7 7-15 11-14 8h-3l-5-5-8-7-12-6-4-1h-7l-10 5-6 7-6 13-3 13-1 16 3 17 5 12 8 11 7 6 14 7 16 4 7 1 3 6v2l-11 5-16 5-20 3h-14l-19-3-4-2 1-1-11-8-11-10-10-13-8-16-4-15v-17l4-15 8-16 8-11 12-12 12-7 14-4 7-1h17l30 3h18l10-4 8-6 11-14 13-21 17-32 7-15z" fill="#5C5E62"/>
<path transform="translate(1053,596)" d="m0 0h30l15 4 8 4 10 8 3 3v2h2l8 16 3 14v22l-3 14-5 12-7 9-8 7-14 7-12 3-7 1h-16l-17-3-12-6-10-9-6-7-6-12-4-17v-25l3-12 6-12h2l1-4 8-7 9-6 13-5z" fill="#FDFBFB"/>
<path transform="translate(299,562)" d="m0 0h3l11 21 1 4h2l3 5v2h2l6 8 5 5 11 9 15 9 13 5 18 5 24 3-1 11-5 15-8 16-9 13-11 11-13 8-10 3h-15l-13-5-10-6v-2l-5-2-7-8-7-7-11-15-8-13-8-15-8-22-3-13-2-14v-13l29-13z" fill="#B60C28"/>
<path transform="translate(537,566)" d="m0 0 8 1 9 4 5 3 7 3 12 5 3 2-1 17-4 20-7 20-10 19-11 16-8 10-11 12-10 8-10 6-10 3h-15l-13-5-9-6-10-9-9-12-6-10-6-15-4-17v-3l23-3 19-5 19-8 11-8 5-2v-2l8-7 6-7 5-5 7-11z" fill="#B60C28"/>
<path transform="translate(322,528)" d="m0 0 4 2 14 10 18 10 19 7 16 4 7 1h34l21-4 20-7 16-8 17-11 4-3 3 1 6 26 2 7v6l-10 16-13 14-15 11-17 8-18 5-18 3h-31l-21-5-15-6-14-8-10-8-11-11-10-14-4-8 1-12 4-24z" fill="#E8AFA6"/>
<path transform="translate(1523,351)" d="m0 0h32v18l6 2 11 6 14 8-4 4-10 6-9 8-4 6-2 6v13l6 12h2l3 4v2h2l3 4v2h2l7 11 4 9 1 5v17l-4 13-5 9-9 10-9 7-3 2-1 15h-31l-1-16-7-4-11-6-14-8v-3l15-6 9-6 5-7 2-5v-13l-8-15-11-16-7-10-5-14v-13l4-13 7-10 4-5 5-4h2v-2l7-4h2z" fill="#FDFCFC"/>
<path transform="translate(1583,602)" d="m0 0 4 2 2 2-1 8-7 21-8 20-10 27-15 38-6 13-4 4-6 1h-35l-5-2-3-3-5 1-11 2-16 1h-16l-4-4-3-10-3-18-3-6-3-1-3 1-2 4-15 25-5 7-2 1h-6l-7-8-10-17-6-9-3-1-3 2-3 9-6 21-5 4-13 1h-24l-5-2-30 2h-17l-5-4-2-5-4-24-2-5-5-1-6 9-10 16-7 11-3 2-7-1v-2h-2l-12-19-7-11-5-1h-2l-3 10-6 21-4 4-4 1h-34l-3-1-2-3v-7l2-5 2-1h40l2-11 10-38 2-2 15 24 16 26 7-10 16-27 10-16 3-3 7 35 2 15 1 5 18-1h25l3 3 3-1h42l1-9 11-42h2l10 17 12 19 8 13h2l16-27 10-16 7-11h2l8 42 1 12 35-2h8l3 7 5-2 1-2h46l1-6 16-41 21-55z" fill="#8A0A22"/>
<path transform="translate(548,217)" d="m0 0h2l4 8 4 10 2 7-5 3-8 8-15 10-15 8-19 8-21 6-18 3-10 1h-29l-23-3-22-5-16-5-8-3h-3l-7 17-10 18-16 25-11 14-10 9-13 8-19 7-4-1-8-8-8-5-3-1h-10l3 5 2 12 4 6 6 4 5 3 2 2v5l-4 4-7-1-10-6-7-9-1-1 4 26v5l-4-2-7-6-6-9-4-13v-25l4-13 7-9 5-4h10l10 6 10 9 4 4 5-1 14-7 12-7 11-9 11-11 10-14 6-10 1-3h2l2-6 6-12 5-16 5 1 17 6 11 3 24 4 9 1h33l19-2 6-2 7-1 9-3 13-5 16-8 16-10 11-9 10-9z" fill="#D68D8E"/>
<path transform="translate(352,24)" d="m0 0h43l19 3 14 4 19 7 21 11 14 10 13 11 12 12 11 14 5 7 21 1 21 3 20 6 19 9 14 10 10 9 8 8 11 16 9 17 6 15 5 19 3 20 1 11v17h-1l-3-25-6-22-6-17-9-17-10-14-11-12-14-11-14-8-13-6-23-6-18-3-20-1-11-14-9-10-7-8-8-7-13-10-13-8-16-8-15-6-20-5-22-3h-31l-19 2-21 5-24 8-21 10-16 10-16 12-13 12-7 7-13 17-9 16-5 11-6 20-4 24-2 21-1 5h-1l1-35 3-24 5-20 9-21 9-15 9-12 9-10 14-14 17-13 15-9 16-8 19-8 21-6z" fill="#E3DCDB"/>
<path transform="translate(554,177)" d="m0 0 3 4 16 30 16 27 14 21 12 16 13 15 8 8 12 9 11 6-1 12-10 21-10 15h-1v-22l-3-10-4-6-4-3-3-1h-16l-11-23-12-28-19-45-12-26h-2l-12 13-7 7-17 13-21 12-21 8-15 4-20 3h-30l-22-3-23-6-21-8-1-19-2-16 20 9 16 7 27 9 16 3h19l18-2 17-4 16-6 16-8 16-10 19-14z" fill="#5C5E62"/>
<path transform="translate(1551,592)" d="m0 0h30l6 1-3 9-20 53-19 49-6 15h-45l1-7 16-35 2-3-1-7-12-22-17-33-6-11-3-5v-2l7-1h35l6 12 9 20 3 5 13-29z" fill="#FDFBFB"/>
<path transform="translate(666,793)" d="m0 0h35l17 2 16 5 9 5 5 4 4 7 3 6v16l-3 13-6 8-6 5h-1l-1-26-3-2-7 1-1 30-14 2h-9l-1-34-3-2-5 1-2 2-1 34h-19l-1-35-3-3h-6l-2 2-1 36-11-1-10-4-3-2v-20l3-22 4-15 6-8 8-4z" fill="#E7AEA5"/>
<path transform="translate(132,790)" d="m0 0h33l16 4 7 6 4 11 3 14 2 11v25l-8 4-16 3-1-36-2-2h-7l-2 3-1 35-19-1-1-33-2-3h-6l-3 4-1 31-21-1-1-1-1-27-3-3h-5l-3 4-1 23-6-4-6-8-3-11v-17l3-9 9-10 10-5 15-4z" fill="#E7AEA6"/>
<path transform="translate(832,370)" d="m0 0h1l1 5 3 50v93l-1 25 83-1 19-2 17-6 13-9 11-11 11-15 7-14 4-14 3-14 3 3 2-12 1-26-4-43 2-7 3-1 3 21 1 21v81l-2 31-2 17h85l21 2 3-12 7-22 2-1 1 4v12l-2 5-2 9-6 16-3 3-8 1-27-1-68-1-5-2-2-3v-13l2-16 1-18v-15l-1-3-4 1-9 19-10 15-9 10-6 5-5 5-10 7-13 5-18 3-12 1h-75l-4-2-2-3-1-8 1-49v-32l-1-42-2-27v-16z" fill="#8A0A22"/>
<path transform="translate(362,12)" d="m0 0h23l19 2 19 4 18 6 21 10 15 10 10 8 10 9 12 12 10 13 6 8 25 1 19 3 15 4 16 7 16 9 14 12 7 7 11 15 9 16 7 18 6 25 2 16v38h-1l-2-29-4-24-5-18-9-20-8-14-10-13-12-12-14-10-15-8-16-6-17-4-15-2-21-1-13-17-12-13-7-7-17-13-15-9-19-9-18-6-19-4-8-1h-43l-25 4-24 7-25 11-19 11-16 12-12 11-12 12-11 15-9 15-9 21-5 20-3 24-2 36h-1l-1-6v-31l3-23 5-21 8-21 8-16 11-16 8-10 11-12 8-7 17-13 13-8 19-10 21-8 18-5 23-4z" fill="#81787C"/>
<path transform="translate(887,410)" d="m0 0 13 1 11 3 11 6 10 8 10 11 9 14v8l-3 6h-2v3h-2l-2 5-13 13h-2v2l-4 1v2l-15 7-8 2h-13l-1-24v-54z" fill="#B80D29"/>
<path transform="translate(947,105)" d="m0 0h17l8 4 7 7 5 11 3 13 1 9v12l-2 12-5 10-7 6-8 3h-17l-8-4-8-9-5-13-2-11v-25l3-10 6-9 6-4zm6 18-4 4-1 5v13l3 21 3 6 2 2h5l3-3 1-4v-19l-2-14-3-9-3-2z" fill="#B80F2B"/>
<path transform="translate(368,306)" d="m0 0h8l10 3 8 5 8 9 3 6 1 6v12l-4 11-7 9-10 6-8 2h-12l-11-4-8-7-6-8-3-10v-11l4-11 6-8 8-6 7-3z" fill="#FDFCFC"/>
<path transform="translate(521,306)" d="m0 0h8l13 4 9 7 5 7 3 9v16l-4 10-9 10-10 5-4 1h-14l-11-4-10-9-5-10-1-3v-16l4-10 6-8 9-6z" fill="#FDFCFC"/>
<path transform="translate(901,110)" d="m0 0h6l1 3 1 16-16 2-13 1v11l6-2h12l8 3 5 4 5 8 2 8v12l-3 9-5 6-9 5-12 3h-19l-9-3-1-18 13 2h12l7-3 2-4v-6l-2-4-4-2h-12l-9 2-7-3-1-13v-33z" fill="#B8102C"/>
<path transform="translate(1696,509)" d="m0 0h11l8 2-1 6-2 8v15l4 11 7 9 9 8-2 4-9 8-10 4-6 1h-9l-13-4-9-7-6-8-4-9-1-5v-13l5-12 9-10 10-6z" fill="#FDFCFC"/>
<path transform="translate(809,117)" d="m0 0h17l9 4 5 4 4 7 1 4v10l-4 11-8 11-11 12-3 3h11l11-1h9l1 3 1 15-1 1-55 5h-5l-1-1-1-15 9-10 11-14 10-13 2-4v-11l-8-1-7 3-8 7-7-6-7-7 2-4 8-7 11-5z" fill="#B8102C"/>
<path transform="translate(319,377)" d="m0 0h14l12 4 6 7 6 12 1 4v10l-4 11-9 10-7 4-6 2h-12l-10-4-8-6-4-5-4-9v-16l4-9 7-8 8-5z" fill="#ED9D9D"/>
<path transform="translate(1430,665)" d="m0 0h2l8 42 1 12 35-2h8l1 12-3 3-10 2-13 1h-16l-4-4-3-10-4-27-1-3-6 1-10 15-14 24-3 3h-5l-7-9-16-27-5-3-4 4-5 19-3 12-4 5-4 1h-32l-4-3 1-12h41l1-9 11-42h2l10 17 12 19 8 13h2l16-27 10-16z" fill="#600D1E"/>
<path transform="translate(1249,665)" d="m0 0 2 4 7 38 2 13 18-1h24l1 12-4 3-19 2h-19l-4-4-3-10-4-26-2-4-5 1-11 17-13 22-3 3h-5l-8-11-9-15-7-11-4-2-3 1-3 10-6 24-3 5-3 1h-34l-4-3 1-11 1-1h40l2-11 10-38 2-2 15 24 16 26 7-10 16-27 10-16z" fill="#5F0D1E"/>
<path transform="translate(954,667)" d="m0 0 2 3 5 28 3 17 1 7 28-2h12l2 6v6l-4 3-11 2-25 1-5-3-3-10-5-28-2-4-5 2-9 14-10 17-7 10-4 1-5-5-7-10-12-21-5-4h-4l-9 36-2 4-2 1-20 1h-15l-4-2v-9l1-6 41 1 2-11 10-38h3l14 23 15 24 2 1 17-28 16-26z" fill="#610B1C"/>
<path transform="translate(1063,626)" d="m0 0h10l10 4 8 5 6 7 2 4v16l-7 14-7 6-6 3-10 1-10-2-10-5-6-7-4-7-1-4v-10l4-11 6-7 11-6z" fill="#A30D27"/>
<path transform="translate(1696,61)" d="m0 0h4l-5 29-7 37-6 1h-9l-8-20-10-28-2 9-8 40-1 2-14 1-7-18-16-43v-2l13-1 14 40 3 8 2-15 7-35 5-1h10l14 37 3 9h1l4-27 4-22z" fill="#B9142E"/>
<path transform="translate(1435,763)" d="m0 0h9l10 8 12 11 8 7-2-15v-11l20 1 1 1v33l1 24-1 1h-11l-8-7-7-7-7-8-7-7v-2h-2v11l-1 19-1 1h-17v-59z" fill="#D2848B"/>
<path transform="translate(861,764)" d="m0 0h10l15 13 13 13-1-25h21l1 59h-12l-25-25-4-5-2-1v16l-1 15h-18v-59z" fill="#D2848B"/>
<path transform="translate(1078,764)" d="m0 0h12l10 8 12 11 7 6-2-25h16l5 1 1 58-11 1-11-10-7-8-11-11-1-2-1 5-1 19-1 7h-17v-33l-1-26z" fill="#D2848B"/>
<path transform="translate(1206,507)" d="m0 0h57l3 5 10 27v2l49-3h11l2 1 1 9-7 3-7 1-38 2h-10l-5-5-10-24-3-3-10-2-40 1-5 3-5 13-4 13-4 4h-22l-30-1-4-2v-8l1-3h13l45 2 2-9 8-24z" fill="#300A13"/>
<path transform="translate(1191,79)" d="m0 0h8l2 18 6 68v4l-2 1h-8l-3-7-7 7-7 3-10 1-9-3-6-4-5-8-3-10-1-16 2-10 5-9 9-6 3-1h14l8 4 2 2-3-33zm-21 38-5 3-4 5-2 9 1 14 4 9 5 5 3 1h8l8-4 3-4 1-3v-17l-3-11-4-5-4-2z" fill="#B9132E"/>
<path transform="translate(1031,764)" d="m0 0h13l10 19 14 28 5 9v3l-9 1h-12l-4-10-20-1-3 10-1 1h-16l-3-1 2-6 13-28 10-24z" fill="#D2848B"/>
<path transform="translate(1301,764)" d="m0 0h14l20 40 9 17-1 2-20 1-4-8-1-3h-19l-4 10-3 1-17-1 2-6 14-30 9-22z" fill="#D2848B"/>
<path transform="translate(1532,762)" d="m0 0h5l10 11-3 3-17 8-8 6-3 5 6 7 7 3 5 1v-20l11 3 6 3v31h-30l-10-5-7-6-6-9-2-5 2-9 7-10 7-7 10-6z" fill="#D2848B"/>
<path transform="translate(1334,93)" d="m0 0h7l-2 10-18 65-5 12-5 6-9 4h-13l-1-9 1-1 10-1 5-3 4-9 1-8-29-58v-3l13-1 11 23 9 20 2 6 7-30 5-20 1-2z" fill="#B9142E"/>
<path transform="translate(1571,71)" d="m0 0h13l8 3 7 6 5 11 1 6v8l-42 4 3 10 4 5 5 2h14l11-4 3-1 1 1v10l-10 4-10 2h-9l-10-3-8-6-6-10-2-9v-15l4-11 7-8 8-4zm1 10-6 4-4 8v6l19-1 10-1 1-3-3-8-4-4-3-1z" fill="#B9142E"/>
<path transform="translate(1385,762)" d="m0 0 11 3 7 3-6 16-9 25-4 13-1 1h-18l-16-32-10-19 1-2 14-5 4 1 14 27v2h2l3-11 7-21z" fill="#D2848B"/>
<path transform="translate(1096,113)" d="m0 0h17l10 5 6 7 4 8 2 12-1 13-4 9-6 7-8 4-10 2-10-1-10-5-7-8-4-10-1-7v-10l2-9 5-8 7-6zm4 10-8 4-3 4-2 7v11l3 11 4 6 6 3h10l6-3 4-5 2-8v-8l-2-10-3-6-6-5-3-1z" fill="#B9132E"/>
<path transform="translate(1242,100)" d="m0 0h15l8 4 4 5 2 5 4 42v7l-1 1h-8l-3-7-7 6-4 3-10 2-10-1-6-4-4-5-2-7 1-10 4-6 8-5 10-3 7-1h9l-2-11-3-3-2-1h-10l-10 4-4 1-4-7 1-3 12-5zm10 34-12 3-6 5-1 8 3 6 9 2 9-3 5-5 2-7-1-9z" fill="#B9142F"/>
<path transform="translate(1504,77)" d="m0 0h14l8 4 5 7 2 9 3 34v9l-1 1h-11l-2-16-3-29-4-6-9-2-9 3-3 3-2 4v22l2 24-4 1h-9l-2-17-3-35v-12l10-1 2 7 7-6z" fill="#B9132E"/>
<path transform="translate(541,384)" d="m0 0 5 1 7 7 4 9v11l-6 12-9 6-5 2h-9l-10-4-7-6-4-9v-13l4-8 4-5h17z" fill="#EC9C9C"/>
<path transform="translate(1467,622)" d="m0 0 4 4v2h2l6 10v3h2l4 10 12 24 3 5 7 3 1 3-13 28-1 5h45v1h-46l-2 4-4 1-3-5-2-10-4-16-8-35-3-17z" fill="#B6112C"/>
<path transform="translate(887,410)" d="m0 0 13 1 11 3 11 6 10 8 10 11 9 14v8l-3 6h-2v3h-2l-1-3-7-4-9-11-8-10-2-1v-2l-5-2-8-4-7-1-5 2-3 15v50l-2 3-1-24v-54z" fill="#A40D27"/>
<path transform="translate(1144,764)" d="m0 0h48l-2 10-2 8-13-1 1 21v22h-19l-1-1v-13l1-27 1-2-16 1v-8z" fill="#D2848B"/>
<path transform="translate(961,764)" d="m0 0h48l-4 18h-13l1 25v17h-20v-17l1-26-3 1h-12v-11z" fill="#D2848B"/>
<path transform="translate(1e3 678)" d="m0 0h3l5 14 7 10 8 8 10 6 10 3 12 2h16l16-3 12-5 10-7 7-8 5-9h1l-1 10-4 9-6 9-9 8-12 6-11 3-7 1h-19l-12-2-13-5-6-4-7-6-9-12-4-11z" fill="#0F070A"/>
<path transform="translate(490,429)" d="m0 0h5l3 3v7l-7 10-5 6-11 8-13 6-9 2h-16l-13-3-10-5-9-7-8-8-5-8v-5l4-4h5l11 13 8 7 12 5 5 1h16l13-4 10-7 7-8 5-8z" fill="#242429"/>
<path transform="translate(1402,86)" d="m0 0h20l7 2-3 10-8-1h-15l-5 3v6l6 4 18 6 8 5 4 8v8l-4 8-5 4-8 3-5 1h-16l-7-2-1-4v-7l11 2h14l6-3 2-3-1-6-10-5-14-5-8-5-3-6v-10l3-6 8-5z" fill="#B9132E"/>
<path transform="translate(743,138)" d="m0 0h11l2 20 21-1 1 4v12l-20 2 1 20-1 1-14 1-1-1-1-9v-11l-22 2-1-5v-11l21-2-2-21z" fill="#B9112C"/>
<path transform="translate(1474,597)" d="m0 0 4 4 6 11 18 35 8 14 4 8-1 7-5 9-1-2-7-2-9-15-6-13-4-8v-4h-2l-5-10-1-3h-2l-3-5v8l-2 4-2-15v-14l2 2 3-7 5-1z" fill="#A41029"/>
<path transform="translate(995,491)" d="m0 0 1 2-9 19-8 11-11 12-7 6-14 7-17 4-14 1-69 1-9-1-2-2-1-8 84-1 19-2 17-6 13-9 11-11 11-15z" fill="#0C0507"/>
<path transform="translate(1131,434)" d="m0 0h1l2 11v14l-1 19-2 7h-2v2l-7 3-12 2-13-1h-9l-11 2-6 2v-23l8-1h26l20 2 1-14 3-19z" fill="#A30C26"/>
<path transform="translate(1494,397)" d="m0 0 1 3-2 8v13l5 14 13 19 7 10 6 12v13l-3 7h-2v-4l-5-1-4-5-4-8-1-3h-2l-4-8-3-3-8-11-6-12-1-10v-9l3-9 3-3z" fill="#A40C27"/>
<path transform="translate(1035,105)" d="m0 0h8l1 14 18-2 1 10-17 2v10l2 23 2 8 2 2 5 1 10-2 1 3v7l-9 3h-11l-6-3-5-6-2-7-3-33v-5l-8 1-1-1v-6l8-5z" fill="#B9142E"/>
<path transform="translate(1059,648)" d="m0 0h7l10 4 2 2 5 4 3 5v2l7 2 1 6-5 6-7 4-3 2-10 1-10-2-10-5-6-7-3-4 1-6 5-3 4-5h2l1-3z" fill="#B80E29"/>
<path transform="translate(1208,517)" d="m0 0h49l7 3 4 6 7 20 1 4h23l32-2 5-2-1-7h-10v-1h11l2 1 1 9-7 3-7 1-38 2h-10l-5-5-10-24-3-3-10-2-40 1-5 3-5 13-4 13-4 4h-22l-30-1-4-2v-8l1-3h13l45 2 2-9 4-12h3l1-3z" fill="#600C1D"/>
<path transform="translate(1587,492)" d="m0 0h1v11l-3 14-6 11-9 10-11 10-2 12-3 3-10 1h-14l-5-2-2-10-3-7-24-14-4-5v-3l3-2h3l1-2 15 8 10 6 1 1v16h31v-15l12-9 7-7 6-10 4-10z" fill="#631827"/>
<path transform="translate(1e3 643)" d="m0 0h1l1 25 1 10h-2l4 21 5 10 10 12 9 6 13 5 12 2h19l15-3 12-5 10-8 6-8 4-8 4-19 4-17 2 1v7l5 1 1-2-1 9-7 27-1 2h-5l-2 4-7 8-10 7-12 6-7 2-16 2h-14l-13-2-10-4-12-7-11-11-6-12-4-12v-3l-2-1-1-13v-10l4-18z" fill="#8A0A22"/>
<path transform="translate(1253,764)" d="m0 0 6 1 11 6v2l-6 4-2 3v8l8 11 1 2v9l-3 6-8 7-6 1-15-8 1-2 6-3 3-4-1-7-8-13-1-2 1-10 6-7z" fill="#D2848B"/>
<path transform="translate(1571,763)" d="m0 0 14 7v3l-6 4-2 5 1 5 7 10 2 4v8l-3 6-5 5-6 4-5-1-13-8 4-3 4-1 2-5-1-6-9-15v-7l4-8 9-6z" fill="#D2848B"/>
<path transform="translate(937,765)" d="m0 0h6l12 7-5 4-4 5v7l8 11 1 2v10l-3 6-7 6-3 2-5-1-13-7v-2l8-5 1-2v-6l-9-15-1-6 3-8 7-6z" fill="#D2848B"/>
<path transform="translate(1354,540)" d="m0 0h116l-1 6-4 4-80 1h-27l-3-2z" fill="#0A0204"/>
<path transform="translate(833,765)" d="m0 0h21l-1 18v41h-19z" fill="#D2848B"/>
<path transform="translate(1407,764)" d="m0 0h21l-2 30v29h-19z" fill="#D2848B"/>
<path transform="translate(1011,542)" d="m0 0h85l22 2-3 9-1 1h-12l-19-1-69-1-3-2z" fill="#0E0608"/>
<path transform="translate(1430,665)" d="m0 0h2l2 10v10l-5-1-6 5-13 22-10 17-2 3-5-1-4-5-17-28-6-7-3-1-4 1 1-9 3-11h2l10 17 12 19 8 13h2l16-27 10-16z" fill="#2F0811"/>
<path transform="translate(1581,607)" d="m0 0 2 2-1 8-14 37-15 40-10 26-4 10-3 3h-38l-2-1v-6l3-6h40l1-6 16-41 21-55z" fill="#2E0D15"/>
<path transform="translate(1249,665)" d="m0 0 2 4 2 10v8l-5-2-6 4-8 13-13 22-5 8-5-1-7-10-9-15-9-14-5-2h-3l1-10 3-9 3 3 16 26 13 21 7-10 16-27 10-16z" fill="#2E0710"/>
<path transform="translate(954,667)" d="m0 0 2 3 2 11v9l-5-3-5 2-4 5-11 19-9 15-5 6-4-2-7-10-15-25-2-4-6-2-2 1 1-4 1-10 2-5 4 4 12 20 15 24 2 1 17-28 16-26z" fill="#2C0A12"/>
<path transform="translate(832,375)" d="m0 0h2l3 50v93l-1 26 1 7 1 1 13 1 65-1 20-2 16-5 12-7 11-11 9-12 8-15 3-9 4-4-1 7-4 11-7 12-9 11-12 12-11 7-13 5-9 2-23 2h-70l-5-2-1-3v-93l-1-42-1-12z" fill="#661828"/>
<path transform="translate(1245,691)" d="m0 0 4 1 2 4 5 30 2 8 3 1h19l19-2 3-2-1-11 2-1 3 3 4-1v12l3 2 32 1v1l-9 1h-24l-5-2-30 2h-17l-5-4-2-5-4-24-2-5-5-1-6 9-10 16-7 11-3 2-7-1v-2h-2l-12-19-7-11-5-1h-2l-3 10-6 21-4 4-4 1h-34l-3-1-2-3v-7l2-5h1v11l3 2h34l3-1 4-11 5-21 3-6 4-2 5 4 13 22 9 13h5l6-9 12-20 8-12z" fill="#8A0A22"/>
<path transform="translate(1010,375)" d="m0 0 2 4 2 13 1 21v81l-2 31-1 9v16l2 1 69 1 19 1h12l3-9 3-12 6-19 2-1v7l-6 22-3 10-3 5-2 1-64-2h-33l-7-2-1-2v-12l2-16 1-15v-89l-3-33v-9z" fill="#61091B"/>
<path transform="translate(1237,427)" d="m0 0h2l13 29 4 11-16-1-21-2 2-6z" fill="#600B1C"/>
<path transform="translate(1720,515)" d="m0 0 4 1 6 5 6 9 3 9v15l-3 10-4-2-7-6-7-12-2-7v-9z" fill="#FCF9F9"/>
<path transform="translate(951,692)" d="m0 0 3 2 3 13 4 23 3 6 3 1 25-1 11-2 3-2-1-12h2l2 11-2 5-8 2-25 2h-9l-5-4-3-8-4-22-1-6-5 1-3 1-2 5-11 18-7 11-7 3-5-3-7-10-12-20-7-1-4 11-5 19-6 5-36 1-4-2-1-7 2-4 1 9 3 1h15l22-1 4-16 6-22 3-3 5 2 4 5 16 27 4 5 4 1 5-5 11-19 9-14 5-5z" fill="#8A0A22"/>
<path transform="translate(1063,626)" d="m0 0h10l10 4 8 5 6 7 2 4v11l-5-5-1-3-18-9-4-1h-8l-11 4-8 6h-2l-2 6h-1v-8l5-10 7-6 8-4z" fill="#120A0C"/>
<path transform="translate(1349,368)" d="m0 0h1l2 9 2 27 2 37v74l-2 22h-1l-1-5-1-57v-31l-1-8-2-35-1-14v-12z" fill="#880C23"/>
<path transform="translate(1477,605)" d="m0 0h3l18 34 12 22 4 8-1 7-4 2-7-11-16-32-10-19-2-7z" fill="#2C0D15"/>
<path transform="translate(832,370)" d="m0 0h1v34l1 12 1 42v93l1 3 4 1h70l10-1h13v2l-20 2h-75l-4-2-2-3-1-8 1-49v-32l-1-42-2-27v-16z" fill="#8A0A22"/>
<path transform="translate(1246,519)" d="m0 0 11 1 5 3 12 28 3 2h12l36-2 11-2 2-1v-9l-2-1h4l1 3v8l-4 3-12 2-35 2h-14l-5-4-3-5-3-9-6-13-5-2h-41l-6 3-3 5-7 20-5 5-14 1-40-2-5-3-1-2 1-9 3-1v11l3 1 32 1h20l3-1 3-11 5-15 4-5 3-1z" fill="#8A0A22"/>
<path transform="translate(1415,367)" d="m0 0 2 3 3 11v13l-1 9-2 24-2 13v38l-1 7-3-1-1-15v-45l2-34 2-22z" fill="#9E142C"/>
<path transform="translate(887,410)" d="m0 0 13 1 11 3 11 6 10 8 10 11 9 14v7l-3-1-8-11-10-11-2-1v-2l-4-2-14-8-10-3-5-1h-8z" fill="#191114"/>
<path transform="translate(1e3 651)" d="m0 0h1l1 17 1 10h-2l4 21 5 10 10 12 9 6 13 5 12 2h19l15-3 12-5 10-8 6-8 4-8 4-19 3-5h1l-1 17-3 9-9 13-5 5-9 7-11 5-13 3-19 1-12-1-12-4-10-5-10-9-7-8-7-17-3-18 2-21z" fill="#610C1D"/>
<path transform="translate(222,356)" d="m0 0h6l4 5 2 12 4 6 6 4 5 3 2 2v5l-4 4-7-1-10-6-7-9-3-8-1-5v-9z" fill="#25252A"/>
<path transform="translate(1480,489)" d="m0 0 2 4v8l-5 25-2 9-2 12-5 4-3 1-76 1h-33l-3-2v-11h1l2 9 2 1h27l80-1 3-3 2-6h-67v-1h67l2-19 6-27z" fill="#661E2D"/>
<path transform="translate(1586,387)" d="m0 0 2 3 1 2v7h-2v2l-7 5-1 2-5 3-9 11-3 5-2 1-1 5-2-2-1-3v-13l4-9 9-10 11-7z" fill="#A40E28"/>
<path transform="translate(1140,540)" d="m0 0 38 1h17l-3 9-2 2h-14l-34-1-4-2v-8z" fill="#0B0305"/>
<path transform="translate(1008,366)" d="m0 0 2 1-1 5-2 8 4 45-1 26-2 9-2 1-2-4-1-14 2-3-1-11-1-9-2-25-2-15 3-7 5-4z" fill="#A40D27"/>
<path transform="translate(1583,604)" d="m0 0 3 2v7l-7 20-15 40-18 46-5 12-3 4-6 1h-35l-4-2v-7l3-7h3l-3 12h40l4-6 8-22 11-29 8-21 14-37 1-8z" fill="#61081A"/>
<path transform="translate(995,491)" d="m0 0 1 2-9 19-8 11-11 12-7 6-14 7-17 4-14 1-69 1-9-1-2-2-1-8h2l2 7h71l20-2 13-3 16-8 16-15 3-4 1-4 11-15z" fill="#2E0710"/>
<path transform="translate(629,805)" d="m0 0 1 3-4 18-2 15-3 2h-7l-6-5-2-6 1-6 6-10 10-8z" fill="#E4ACA4"/>
<path transform="translate(203,803)" d="m0 0 10 5 10 10 4 8v7l-5 6-7 2-6-2-4-25z" fill="#E6ACA4"/>
<path transform="translate(1278,719)" d="m0 0h20l2 5-1 7-3 1-13 1h-21l-3-4-1-7 1-1z" fill="#0C0507"/>
<path transform="translate(1e3 678)" d="m0 0h3l4 12 1 8 5 12 9 10 9 6 12 4 6 1h26l16-4 12-7 5-4 6-10 1-7 6-10h1l-1 10-4 9-6 9-9 8-12 6-11 3-7 1h-19l-12-2-13-5-6-4-7-6-9-12-4-11z" fill="#2F0912"/>
<path transform="translate(1082,405)" d="m0 0h38l10 2-1 7h-34l-22 1-4 2v-10l1-1z" fill="#120B0D"/>
<path transform="translate(1079,471)" d="m0 0h26l16 2 4 2-3 7-48-1-3 1v-10z" fill="#10090B"/>
<path transform="translate(1169,721)" d="m0 0 1 4-2 7-4 3h-30l-4-3v-10z" fill="#0A0204"/>
<path transform="translate(850,723)" d="m0 0h24l-1 9-3 4h-34l-2-2v-10z" fill="#0A0204"/>
<path transform="translate(1491,418)" d="m0 0 2 3 5 14 13 19 7 10 6 12v10l-4-2-11-18-13-19-5-12z" fill="#610B1D"/>
<path transform="translate(1351,719)" d="m0 0h1l-1 9-3 5-27 1-7-1-2-3v-9h39z" fill="#0A0204"/>
<path transform="translate(213,93)" d="m0 0v3l-2 4 1 2-12 19-9 20-5 18-3 18-1 11-2 36h-1l-1-6v-31l3-23 5-21 8-21 8-16 8-12z" fill="#797376"/>
<path transform="translate(1206,507)" d="m0 0h57l3 5 1 7-4-4h-59l-1 2 1-8z" fill="#160F11"/>
<path transform="translate(888,419)" d="m0 0h7l13 3 13 7 7 5v2l4 2 10 11 7 10 2 2-2 4h-3l-4-5v-2h-2l-4-6-6-7v-2l-4-2-1-3-6-3v-2l-6-2-9-4-2-1h-11l-2 3-1 16h-1v-25z" fill="#61081A"/>
<path transform="translate(1128,509)" d="m0 0 2 4v12l-2 5-2 9-6 16-3 3-8 1-27-1-68-1-5-2-2-3v-13l2-15 2-1v10l-1 6v14l7 1h36l61 2 3-3 3-8 4-15 3-11v-9z" fill="#8A0A22"/>
<path transform="translate(1363,670)" d="m0 0h2l10 17 12 19 8 13h2l16-27 5-5 1 2-6 12-12 19-5 6-5-4-17-29-7-9-6 1v-8z" fill="#171013"/>
<path transform="translate(1539,719)" d="m0 0 1 2-4 8-4 2h-30l-3-1 1-7 1-3z" fill="#0A0204"/>
<path transform="translate(1588,487)" d="m0 0h1l1 9v10l-3 11-5 10-3 5h-2l-2 4-6 6h-2v2l-5 4-3 12-5 5-9 1h-16l-5-2-3-4-2-11-4-4-20-12-5-5-1-4 4-4h2v-2l3 1v2l-6 2 3 6 9 6 17 10 3 7 2 10 4 1h14l10-1 2-2 2-12 17-16 6-9 4-9 2-11v-14z" fill="#8A0A22"/>
<path transform="translate(1307,539)" d="m0 0h26l-1 5-4 2-12 1-17 1h-19l-4-4v-2l13-2z" fill="#0F0709"/>
<path transform="translate(1182,671)" d="m0 0 3 3 16 26 13 21 7-10 13-22h3l-2 6-8 13-7 11-5 7-4-1-6-9-14-24-3-4v-2l-8-1-1 2v-7z" fill="#160F12"/>
<path transform="translate(1336,604)" d="m0 0h1l-1 10-7 34-3 11-4 16-10 39-1 6h40v1l-42 1-3 1-3-2v-2h-12v-1l13-1 3 1 3-9 8-32 7-30 5-23 3-12z" fill="#A60E28"/>
<path transform="translate(1354,540)" d="m0 0h30v1l-28 1 2 5h31l77-1 3-6 1 3-3 6-2 1-80 1h-27l-3-2z" fill="#2C0710"/>
<path transform="translate(1459,718)" d="m0 0h19l1 8-2 2-6 1-25 1-3-2-1-8z" fill="#0C0406"/>
<path transform="translate(1132,405)" d="m0 0h1v11l-4 3h-42l-10 2-6 3-1 5h-1v-12l4-3 22-1h18l16 1v-6l-1-2z" fill="#890D24"/>
<path transform="translate(860,604)" d="m0 0h1l-1 10-4 21-4 15-3 13-9 36-2 2-1-6 8-34 3-14 3-17 2-11z" fill="#9E0F28"/>
<path transform="translate(983,721)" d="m0 0h18l1 6-1 3-13 2h-21l-2-5v-4z" fill="#0A0204"/>
<path transform="translate(1133,405)" d="m0 0 4 5v8l-3 3-8 2-13 1h-21l-16 2-6 3v-5l4-3 6-2 7-1h42l3-2z" fill="#A40D27"/>
<path transform="translate(1126,459)" d="m0 0 2 2v16l-3 8-2 1h-31l-18 2-2 7h-1v-13l4-2 47 1 2-6-3-2h4z" fill="#8A0A22"/>
<path transform="translate(1154,607)" d="m0 0h1l-1 11-4 20-4 15-5 21-5 1-2-1-1-7-1-1v-19h1l2 12 5-2 3-9 8-34z" fill="#A40D27"/>
<path transform="translate(1010,375)" d="m0 0 2 4 2 13 1 21v81l-2 31-1 9h-1v-11l1-15v-89l-3-33v-9z" fill="#631A29"/>
<path transform="translate(887,673)" d="m0 0 4 4 12 20 15 24v3l3 1-2 3-4-1-9-15-7-12-7-11-5-2-3 1 1-10z" fill="#140D0F"/>
<path transform="translate(1132,666)" d="m0 0 2 1v7l5 1 1-2-1 9-7 27-1 2h-5l-2 4-7 8-8 6-2-1 7-7h2l2-4 7-10 4-8 2-14v-6h-1l1-10z" fill="#8A0C24"/>
<path transform="translate(1352,532)" d="m0 0h1l1 8v11l2 1h35l74-1 5-3 2-1-1 4-3 2-7 1-59 1-41 1-8-2-3-4v-9l1-8z" fill="#8A0A22"/>
<path transform="translate(1011,542)" d="m0 0 3 1v2l2 3 11 1h32l39 1 16 1 2-5 1 3-3 5h-12l-19-1-69-1-3-2z" fill="#2D060F"/>
<path transform="translate(1350,375)" d="m0 0 2 2 2 27 2 37v74l-2 4-1-76-3-49z" fill="#713A45"/>
<path transform="translate(1525,551)" d="m0 0h31l-1 8-2 2h-25l-2-3z" fill="#0A0204"/>
<path transform="translate(1235,447)" d="m0 0 5 1 8 15 2 4-31-3 1-2 5-2 6-9z" fill="#8A0C23"/>
<path transform="translate(891,415)" d="m0 0 15 3 11 4 11 7 13 13 7 9v2h3v7l-3-1-8-11-10-11-2-1v-2l-4-2-14-8-10-3-12-2 1-3z" fill="#2E060F"/>
<path transform="translate(1580,389)" d="m0 0 3 1 2 3-1 4-16 12-7 7-4 7h-1v-8l4-9 9-10z" fill="#2E1017"/>
<path transform="translate(1500,521)" d="m0 0 4 1 10 5 10 6v10l-5-2-15-8-8-6 1-4z" fill="#10080B"/>
<path transform="translate(340,257)" d="m0 0h1l-1 10-8 16-8 14-7 11-11 12h-2l-2 4-11 10-8 5h-2l-1 2 1-4 10-7 10-9 7-7 10-14 6-10 1-3h2l2-6 6-12 3-8z" fill="#DF9697"/>
<path transform="translate(1352,64)" d="m0 0h7l7 9 6 7v2l-8 1-9-6-11-10v-2z" fill="#BA1630"/>
<path transform="translate(1124,406)" d="m0 0 6 1-1 7h-34l-22 1-4 2v-10h1l1 5 3-2 51-1 1-1z" fill="#2E0912"/>
<path transform="translate(1582,511)" d="m0 0 1 2-4 10-6 9-8 8-5 3h-2l-1 2v-11l11-8 7-7 4-6z" fill="#2D0811"/>
<path transform="translate(1581,607)" d="m0 0 2 2-1 8-14 37-7 18-5 3 3-10 18-47z" fill="#34181E"/>
<path transform="translate(832,375)" d="m0 0h2l2 33v95h-1l-2-87-1-12z" fill="#591221"/>
<path transform="translate(959,697)" d="m0 0 2 1 3 17 1 7h7v1h-7l2 8h21l13-1v-9h-8v-1h9l2 4v8l-9 2-12 1h-17l-3-5-4-24z" fill="#331018"/>
<path transform="translate(878,705)" d="m0 0h3l-1 8-5 20-2 4-2 1-20 1h-15l-4-2v-9l1-6 17 1v1l-15 1v9l1 1h34l3-6 2-13z" fill="#611021"/>
<path transform="translate(1480,489)" d="m0 0 2 4v8l-5 25-2 9-2 12h-2v-21l6-29z" fill="#871127"/>
<path transform="translate(1491,412)" d="m0 0h1v23l5 12 16 24 9 14 2 1-1 5-2 1-1-6h-2l-10-17-11-16-6-10-3-10v-10l2-10z" fill="#890A22"/>
<path transform="translate(1063,638)" d="m0 0h8l11 4 11 7 6 8v5l-2 1-6-10-7-6-11-5h-11l-10 4-11 10-1 5h-2v-10h3l5-5 10-6z" fill="#650F20"/>
<path transform="translate(1477,605)" d="m0 0h3l-1 8 5 12 10 19 12 23 6 10-3 1-7-11-16-32-10-19-2-7z" fill="#61081A"/>
<path transform="translate(889,422)" d="m0 0h8l9 2 10 5 12 9 7 7 8 10 6 9-3 1-4-5v-2h-2l-4-6-6-7v-2l-4-2-1-3-6-3v-2l-6-2-9-4-2-1h-11l-2 3-1 16h-1v-19z" fill="#890A22"/>
<path transform="translate(1061,636)" d="m0 0h12l11 4 10 6 3 3 2-3v11l-5-5-1-3-18-9-4-1h-8l-11 4-8 6h-2l-2 6h-1v-8l2-3h2l8-5z" fill="#2F0911"/>
<path transform="translate(1026,774)" d="m0 0 4 1-1 7-4 8-1 4 2 4-2 5-5 2-4 5h-3l-1 2 1-6 11-24z" fill="#D78C8E"/>
<path transform="translate(1495,434)" d="m0 0 3 1 13 19 7 10 6 12-1 4-6-8-7-10-10-15-5-12z" fill="#2F1118"/>
<path transform="translate(1476,603)" d="m0 0 3 1-4 5 4 11 8 15 16 32 6 9v2l2 1-2 2-6-7-32-64 1-5z" fill="#8A0A22"/>
<path transform="translate(1237,427)" d="m0 0h2l13 29 2 5-1 4-3-5-8-17-3-2h-5l-4 5-5 10h-2l2-6z" fill="#391B23"/>
<path transform="translate(1138,541)" d="m0 0 3 1v5l49 1 4-7 1 2-3 7-2 2h-14l-34-1-4-2z" fill="#2E060F"/>
<path transform="translate(1197,537)" d="m0 0 1 4-4 11-3 2h-22l-30-1-4-2v-8l1-3 4 1h-2l1 8 3 1 34 1h14l3-5 1-7z" fill="#61091A"/>
<path transform="translate(548,217)" d="m0 0h2l3 7-1 3-3-3-4 1-6 5h-2v2l-12 9-9 6-11 6-8 4-3-1 5-4 17-9 14-10 13-11z" fill="#E49798"/>
<path transform="translate(1007,631)" d="m0 0 1 3-2 9h-2l-1 9-3 13v10l1 13-2-1-4-19v-6l1-2 1-11 4-7 1-2h2l1-5z" fill="#A40D27"/>
<path transform="translate(1130,407)" d="m0 0h2v7l-1 2-7 1h-43l-8 1-4 5v-6l4-3 22-1h18l16 1v-6z" fill="#62081A"/>
<path transform="translate(1498,519)" d="m0 0 3 2-4 3 1 4 15 9 11 6v-9h1v16h31v1h-32l-4-6-24-14-4-5v-3l3-2h3z" fill="#6C2432"/>
<path transform="translate(850,723)" d="m0 0h24l-1 9-3 4h-34l-2-2v-10l4 2v6h33l2-8h-23z" fill="#2C0912"/>
<path transform="translate(1208,368)" d="m0 0 1 3-15 37-15 35-4 9-1-3 13-31 6-16 10-25z" fill="#A60D27"/>
<path transform="translate(1062,641)" d="m0 0h11l14 7 8 9 3 6-2 5h-1l-2-6-5-8v-2h-2l-3-3-8-4-5-1h-7l-10 4-4 2v2l-7 6-2 2 1-5 11-10z" fill="#890A22"/>
<path transform="translate(1439,712)" d="m0 0 2 2v5h10v1h-9l2 8 2 1 25-1 7-2v-8l3 1 1 9-2 2-14 2-20 1-4-2-2-6z" fill="#340E16"/>
<path transform="translate(849,649)" d="m0 0 2 4-2 10-9 36-2 2-1-6 8-34 2-9z" fill="#A00E27"/>
<path transform="translate(1071,472)" d="m0 0h1l1 6h47l4-3-1 6-1 1-48-1-3 1z" fill="#2F0912"/>
<path transform="translate(1169,721)" d="m0 0 1 4-2 7-4 3h-30l-4-3v-10h3l1 3v5l2 1h30z" fill="#2E060F"/>
<path transform="translate(1351,719)" d="m0 0h1l-1 9-3 5-27 1-7-1-2-3v-9l4 2v6l9 1 22-1z" fill="#2E060F"/>
<path transform="translate(1125,471)" d="m0 0h1l-1 10-2 3-7 1-14-1h-28l-3 3v-5l4-2 47 1 2-6-3-2h4z" fill="#620A1C"/>
<path transform="translate(1296,719)" d="m0 0h2l2 5-1 7-3 1-13 1h-21l-3-4-1-7 2-1 3 8 3 1 23-1 7-1z" fill="#2E060F"/>
<path transform="translate(1296,775)" d="m0 0h2v3l3-3-1 5-4 8-2 3-2 6-6 11h-3l1-6z" fill="#D68C8E"/>
<path transform="translate(1235,455)" d="m0 0 4 1 5 5 4 5-17-1-8-1 4-3z" fill="#A40D27"/>
<path transform="translate(1411,403)" d="m0 0 3 2-1 17-1 49-2-2v-45z" fill="#984250"/>
<path transform="translate(1580,389)" d="m0 0 3 1 2 3-1 4-16 12-7 7-4 7h-1v-8h2l4-6 13-10 4-3-1-6z" fill="#620B1D"/>
<path transform="translate(886,424)" d="m0 0h1l1 21 1 4v50l-2 3-1-24z" fill="#A54C59"/>
<path transform="translate(1500,521)" d="m0 0 4 1-1 5 9 6 8 4 2 2 2-3v7l-5-2-15-8-8-6 1-4z" fill="#2E060F"/>
<path transform="translate(1010,375)" d="m0 0 2 4 2 13 1 28-3-1-3-33v-9z" fill="#651928"/>
<path transform="translate(1582,388)" d="m0 0h2l3 4-1 6-12 9-4 2v2h-2l-2 4-6 7-2 6h-2l1-7 6-8 7-7 14-10-1-4z" fill="#891026"/>
<path transform="translate(1557,548)" d="m0 0h1l-1 12-3 3-10 1h-14l-5-2-2-10 1-3 4 11h25l2-4z" fill="#62081A"/>
<path transform="translate(1249,665)" d="m0 0 2 4 1 10h-6l-9 9-1-2z" fill="#1C1618"/>
<path transform="translate(1574,520)" d="m0 0h2l-2 5-7 9-7 5h-2l-1 2v-7l11-8z" fill="#150E10"/>
<path transform="translate(954,667)" d="m0 0 2 3 1 11-5-1-8 7-2 1 2-5 9-15z" fill="#1F181B"/>
<path transform="translate(1430,665)" d="m0 0h2l1 5v8l-4-1-6 5-2 3h-2l2-6z" fill="#1A1416"/>
<path transform="translate(1310,713)" d="m0 0h1v7h40v1l-42 1-3 1-3-2v-2h-12v-1l13-1 3 1 2-4z" fill="#9C4A58"/>
<path transform="translate(1525,551)" d="m0 0 4 4v2l6 1h18l2-7h1l-1 8-2 2h-25l-2-3z" fill="#2E060F"/>
<path transform="translate(206,372)" d="m0 0h1l2 12 6 14 7 7 4 1v5l-4-2-7-6-6-9-3-11z" fill="#E49799"/>
<path transform="translate(1234,689)" d="m0 0h3l-2 6-8 13-6 9-4 2 2-5z" fill="#1A1416"/>
<path transform="translate(125,547)" d="m0 0 1 3-2 14-2 32h-1v-33l2-15z" fill="#C58688"/>
<path transform="translate(1350,375)" d="m0 0 2 2 2 27v11h-2l-2-21z" fill="#72323E"/>
<path transform="translate(525,237)" d="m0 0m-2 1 2 1-5 5-13 8-10 5-3-1 5-4 17-9z" fill="#DE9797"/>
<path transform="translate(213,93)" d="m0 0v3l-2 4 1 2-5 7-2-1-4 6-2-2 7-12 4-6z" fill="#6C686C"/>
<path transform="translate(1309,786)" d="m0 0h2l4 10v3l-11-1v-3z" fill="#B80D29"/>
<path transform="translate(1384,770)" d="m0 0 2 1v7l-4 8h-2l-3 4 1-9 4-10z" fill="#D78C8E"/>
<path transform="translate(1039,786)" d="m0 0 3 4 3 9h-7l-5-1z" fill="#B80D29"/>
<path transform="translate(1154,607)" d="m0 0h1l-1 11-4 18-2 1-1-7 5-19z" fill="#A40C26"/>
<path transform="translate(1581,607)" d="m0 0 2 2-1 8-5 13-4 3 1-7z" fill="#2F1219"/>
<path transform="translate(1521,355)" d="m0 0 2 3v12l-4 1-3-5 1-5 2-4h2z" fill="#98162D"/>
<path transform="translate(1127,512)" d="m0 0h1v7l-5 17-4 2 3-12 4-13z" fill="#60212E"/>
<path transform="translate(220,331)" d="m0 0 4 1-5 3-4 4-5 13-3 11h-1l1-13 3-8 6-8z" fill="#E69999"/>
<path transform="translate(1296,775)" d="m0 0h2v3l3-3-1 5-4 8h-3l-2 5h-2l3-9z" fill="#D5898D"/>
<path transform="translate(1126,459)" d="m0 0 2 2v16l-3 8-2 1h-6l2-2 4-1 2-7v-9z" fill="#87172C"/>
<path transform="translate(1480,489)" d="m0 0 1 2-6 28-2 1 1-10 5-20z" fill="#682836"/>
<path transform="translate(1350,789)" d="m0 0 3 3 8 17 3 9h-2l-12-26z" fill="#D68A8D"/>
<path transform="translate(1231,461)" d="m0 0h7l6 2 2 3-15-1-3-2z" fill="#B80D29"/>
<path transform="translate(1515,770)" d="m0 0 3 1-11 9-2 4 2 1-3 1-1 3-4 1 1-4 6-8z" fill="#D58A8D"/>
<path transform="translate(657,624)" d="m0 0 4 2 13 13v2h2l-1 3-18-18z" fill="#BA8789"/>
<path transform="translate(878,705)" d="m0 0h3l-1 8-2 8-4 3 1-8z" fill="#5E1F2C"/>
<path transform="translate(1564,659)" d="m0 0 1 3-4 10-5 3 3-10 2-5z" fill="#361920"/>
<path transform="translate(1352,415)" d="m0 0h2l1 10v14h-2l-1-13z" fill="#601F2D"/>
<path transform="translate(206,372)" d="m0 0h1l2 12 5 12v2l-3-1-3-7-2-7z" fill="#E29798"/>
<path transform="translate(540,225)" d="m0 0m-1 1m-2 1 2 1-2 4-12 9-2-1 4-5 9-7z" fill="#E19798"/>
<path transform="translate(1484,717)" d="m0 0 8 1 1 4-4 3-3-1-2-4z" fill="#A40D27"/>
<path transform="translate(669,236)" d="m0 0h1l1 11v17h-1l-2-15z" fill="#E0B8B7"/>
<path transform="translate(681,508)" d="m0 0 3 1 4 14v4h-2z" fill="#B78284"/>
<path transform="translate(1582,388)" d="m0 0h2l3 4-1 6-8 6-2-1 8-7-1-4z" fill="#8A0A22"/>
<path transform="translate(924,780)" d="m0 0 3 4v6h2l4 8-3-1-6-10-1-6z" fill="#D68A8D"/>
<path transform="translate(840,687)" d="m0 0h2l-1 8-2 6-2-2 1-8z" fill="#9F0C26"/>
<path transform="translate(1583,602)" d="m0 0 4 2 2 2-1 8-1 3h-2v-11z" fill="#8A0F26"/>
<path transform="translate(1763,463)" d="m0 0m-1 1m-1 1m-1 1m-1 1m-1 1m-1 1m-1 1m-1 1m-1 1m-1 1m-1 1m-1 1m-3 1 3 1-11 11-2-1 8-8z" fill="#9E0B25"/>
<path transform="translate(206,101)" d="m0 0v3h2l1 3-3 2-1-1-4 6-2-2 6-10z" fill="#736D71"/>
<path transform="translate(1471,532)" d="m0 0h1v10l-2 7-2 2-3-1 3-4z" fill="#631223"/>
<path transform="translate(858,765)" d="m0 0h6l-3 4-1 11-2-3z" fill="#D68A8D"/>
<path transform="translate(1129,440)" d="m0 0h2v9l-3 9h-1l1-12z" fill="#8A3443"/>
<path transform="translate(1336,604)" d="m0 0h1l-1 10-2 7-2-2 1-7z" fill="#A30C26"/>
<path transform="translate(1411,403)" d="m0 0 3 2-1 13-2 1z" fill="#893846"/>
<path transform="translate(294,328)" d="m0 0m-2 1h2l-2 4-9 6h-2l-1 2 1-4 10-7z" fill="#E29798"/>
<path transform="translate(1351,400)" d="m0 0h2l1 4v11h-2l-1-7z" fill="#712C39"/>
<path transform="translate(125,547)" d="m0 0 1 3-2 12-2 1v-8l1-7z" fill="#BE8386"/>
<path transform="translate(1581,607)" d="m0 0 2 2-1 8-5 3 3-10z" fill="#42262C"/>
<path transform="translate(1e3 471)" d="m0 0h1v7l-2 9-4 2 3-10z" fill="#793945"/>
<path transform="translate(1514,374)" d="m0 0 2 1-2 1zm-2 2 2 1-12 12v-3l5-6z" fill="#ECD4D4"/>
<path transform="translate(1555,353)" d="m0 0h1l2 9v7h-3z" fill="#A21029"/>
<path transform="translate(995,491)" d="m0 0 1 2-4 9-4 4-2-1z" fill="#3B242B"/>
<path transform="translate(1575,630)" d="m0 0 1 3-2 5-4 1 1-5 2-3z" fill="#381A21"/>
<path transform="translate(833,765)" d="m0 0 3 1-1 15h-1l-1-6z" fill="#D58A8D"/>
<path transform="translate(1488,622)" d="m0 0 4 5 3 6v2l-3-1-4-8z" fill="#2E2528"/>
<path transform="translate(1124,527)" d="m0 0 1 3-2 6-4 2 2-7z" fill="#601726"/>
<path transform="translate(271,343)" d="m0 0 2 1-3 3-9 3 3-4z" fill="#E59899"/>
<path transform="translate(302,320)" d="m0 0h2l-2 4-6 6-2-1 7-8z" fill="#D69495"/>
<path transform="translate(837,699)" d="m0 0 2 2-1 8-1-2h-2l1-7z" fill="#AC1F36"/>
<path transform="translate(692,627)" d="m0 0h1l-1 11-1 6h-1v-13z" fill="#9F787C"/>
<path transform="translate(1149,627)" d="m0 0 2 1-1 8-2 1-1-7z" fill="#A00C26"/>
</svg>